  Stream #0:0: Video: rawvideo (BGR[0] / 0x524742), bgr0, 1280x720, 884736 kb/s,
 30 fps, 1000k tbr, 1000k tbn
[aist#1:0/pcm_s16le @ 0x557d3ed5acc0] Guessed Channel Layout: stereo
Input #1, pulse, from 'VirtualSink.monitor':
  Duration: N/A, start: 1777298172.633440, bitrate: 1536 kb/s
  Stream #1:0: Audio: pcm_s16le, 48000 Hz, 2 channels, s16, 1536 kb/s
[tcp @ 0x557d3ed62500] Connection to tcp://rtmp.cdn.asset.aparat.com:443?tcp_nod
elay=0 failed: Connection timed out
[rtmp @ 0x557d3ed61fc0] Cannot open connection tcp://rtmp.cdn.asset.aparat.com:4
43?tcp_nodelay=0
[out#0/flv @ 0x557d3ed583c0] Error opening output rtmp://rtmp.cdn.asset.aparat.c
om:443/event/ef6d74868f69db63a3c11a33a8f899d8f?s=54d20ca45fba421a: Connection ti
med out
Error opening output file rtmp://rtmp.cdn.asset.aparat.com:443/event/ef6d74868f6
9db63a3c11a33a8f899d8f?s=54d20ca45fba421a.
Error opening output files: Connection timed out
runner@runnervmeorf1:~/work/tel/tel$ cd /home/runner/work/tel/tel
runner@runnervmeorf1:~/work/tel/tel$ source session/env 2>/dev/null
runner@runnervmeorf1:~/work/tel/tel$ test
runner@runnervmeorf1:~/work/tel/tel$ cd /home/runner/work/tel/tel
runner@runnervmeorf1:~/work/tel/tel$ source session/env 2>/dev/null
runner@runnervmeorf1:~/work/tel/tel$ ping -c 4 rtmp.cdn.asset.aparat.com
PING rtmp.cdn.asset.aparat.com (185.147.178.62) 56(84) bytes of data.

--------------------------------
2026-04-27T13:58:48Z | ID=37 | EXIT=0
